<svg version="1.1" viewBox="0.0 0.0 720.0 720.0" fill="none" stroke="none" stroke-linecap="square" stroke-miterlimit="10" xmlns:xlink="http://www.w3.org/1999/xlink" xmlns="http://www.w3.org/2000/svg"><clipPath id="p.0"><path d="m0 0l720.0 0l0 720.0l-720.0 0l0 -720.0z" clip-rule="nonzero"/></clipPath><g clip-path="url(#p.0)"><path fill="#000000" fill-opacity="0.0" d="m0 0l720.0 0l0 720.0l-720.0 0z" fill-rule="evenodd"/><path fill="#cfe2f3" d="m0 0l720.0 0l0 720.0l-720.0 0z" fill-rule="evenodd"/><path stroke="#000000" stroke-width="1.0" stroke-linejoin="round" stroke-linecap="butt" d="m0 0l720.0 0l0 720.0l-720.0 0z" fill-rule="evenodd"/><path fill="#cc9966" d="m2.5249343 100.13123l20.209974 75.79003l-2.5249348 -77.0525l7.5800514 55.580055l53.052498 -58.10499l5.05249 68.20997l45.472435 -64.42257l-5.0524826 36.632545l59.367455 -39.15748l77.052475 31.57743l15.160126 -31.57743l85.89502 58.10499l44.20996 -56.84252l80.84253 27.790024l5.05249 -27.790024l69.47241 11.367455l18.94751 -12.629921l32.84253 49.26246l12.632568 -47.999992l32.839905 36.632545l56.84247 -36.632545z" fill-rule="evenodd"/><path stroke="#000000" stroke-width="1.0" stroke-linejoin="round" stroke-linecap="butt" d="m2.5249343 100.13123l20.209974 75.79003l-2.5249348 -77.0525l7.5800514 55.580055l53.052498 -58.10499l5.05249 68.20997l45.472435 -64.42257l-5.0524826 36.632545l59.367455 -39.15748l77.052475 31.57743l15.160126 -31.57743l85.89502 58.10499l44.20996 -56.84252l80.84253 27.790024l5.05249 -27.790024l69.47241 11.367455l18.94751 -12.629921l32.84253 49.26246l12.632568 -47.999992l32.839905 36.632545l56.84247 -36.632545z" fill-rule="evenodd"/><path fill="#f3f3f3" d="m264.25198 295.09973l0 0c0 -62.07332 48.87497 -112.39369 109.165344 -112.39369l0 0c28.952454 0 56.719086 11.841446 77.19156 32.919357c20.472473 21.077896 31.973785 49.66568 31.973785 79.474335l0 0c0 62.073334 -48.875 112.39371 -109.165344 112.39371l0 0c-60.290375 0 -109.165344 -50.320374 -109.165344 -112.39371z" fill-rule="evenodd"/><path stroke="#000000" stroke-width="1.0" stroke-linejoin="round" stroke-linecap="butt" d="m264.25198 295.09973l0 0c0 -62.07332 48.87497 -112.39369 109.165344 -112.39369l0 0c28.952454 0 56.719086 11.841446 77.19156 32.919357c20.472473 21.077896 31.973785 49.66568 31.973785 79.474335l0 0c0 62.073334 -48.875 112.39371 -109.165344 112.39371l0 0c-60.290375 0 -109.165344 -50.320374 -109.165344 -112.39371z" fill-rule="evenodd"/><path fill="#f3f3f3" d="m504.25198 295.09973l0 0c0 -62.07332 48.87497 -112.39369 109.16531 -112.39369l0 0c28.952454 0 56.719116 11.841446 77.19159 32.919357c20.472473 21.077896 31.973816 49.66568 31.973816 79.474335l0 0c0 62.073334 -48.875 112.39371 -109.165405 112.39371l0 0c-60.290344 0 -109.16531 -50.320374 -109.16531 -112.39371z" fill-rule="evenodd"/><path stroke="#000000" stroke-width="1.0" stroke-linejoin="round" stroke-linecap="butt" d="m504.25198 295.09973l0 0c0 -62.07332 48.87497 -112.39369 109.16531 -112.39369l0 0c28.952454 0 56.719116 11.841446 77.19159 32.919357c20.472473 21.077896 31.973816 49.66568 31.973816 79.474335l0 0c0 62.073334 -48.875 112.39371 -109.165405 112.39371l0 0c-60.290344 0 -109.16531 -50.320374 -109.16531 -112.39371z" fill-rule="evenodd"/><path fill="#000000" d="m408.7244 295.09973l0 0c0 -11.437073 9.264557 -20.708649 20.692932 -20.708649l0 0c5.488098 0 10.751434 2.1817932 14.63208 6.0654297c3.8806763 3.883606 6.0608215 9.15094 6.0608215 14.643219l0 0c0 11.437073 -9.264526 20.70868 -20.692902 20.70868l0 0c-11.428375 0 -20.692932 -9.271606 -20.692932 -20.70868z" fill-rule="evenodd"/><path stroke="#000000" stroke-width="1.0" stroke-linejoin="round" stroke-linecap="butt" d="m408.7244 295.09973l0 0c0 -11.437073 9.264557 -20.708649 20.692932 -20.708649l0 0c5.488098 0 10.751434 2.1817932 14.63208 6.0654297c3.8806763 3.883606 6.0608215 9.15094 6.0608215 14.643219l0 0c0 11.437073 -9.264526 20.70868 -20.692902 20.70868l0 0c-11.428375 0 -20.692932 -9.271606 -20.692932 -20.70868z" fill-rule="evenodd"/><path fill="#cc9966" d="m0 0l720.0 0l0 99.84252l-720.0 0z" fill-rule="evenodd"/><path fill="#f4cccc" d="m346.8104 522.357l290.90054 0l0 0c38.108765 0 69.002014 21.91632 69.002014 48.951477c0 27.035156 -30.89325 48.951477 -69.002014 48.951477l-290.90054 0l0 0c-38.108734 0 -69.00198 -21.91632 -69.00198 -48.951477c0 -27.035156 30.89325 -48.951477 69.00198 -48.951477z" fill-rule="evenodd"/><path stroke="#000000" stroke-width="1.0" stroke-linejoin="round" stroke-linecap="butt" d="m346.8104 522.357l290.90054 0l0 0c38.108765 0 69.002014 21.91632 69.002014 48.951477c0 27.035156 -30.89325 48.951477 -69.002014 48.951477l-290.90054 0l0 0c-38.108734 0 -69.00198 -21.91632 -69.00198 -48.951477c0 -27.035156 30.89325 -48.951477 69.00198 -48.951477z" fill-rule="evenodd"/><path fill="#cfe2f3" d="m377.88785 547.0327l228.74765 0l0 0c29.966553 0 54.259277 10.868713 54.259277 24.27594c0 13.407227 -24.292725 24.275879 -54.259277 24.275879l-228.74765 0l0 0c-29.966553 0 -54.259247 -10.868652 -54.259247 -24.275879c0 -13.407227 24.292694 -24.27594 54.259247 -24.27594z" fill-rule="evenodd"/><path stroke="#000000" stroke-width="1.0" stroke-linejoin="round" stroke-linecap="butt" d="m377.88785 547.0327l228.74765 0l0 0c29.966553 0 54.259277 10.868713 54.259277 24.27594c0 13.407227 -24.292725 24.275879 -54.259277 24.275879l-228.74765 0l0 0c-29.966553 0 -54.259247 -10.868652 -54.259247 -24.275879c0 -13.407227 24.292694 -24.27594 54.259247 -24.27594z" fill-rule="evenodd"/><path fill="#000000" d="m648.7244 295.09973l0 0c0 -11.437073 9.264526 -20.708649 20.692871 -20.708649l0 0c5.488098 0 10.751465 2.1817932 14.632141 6.0654297c3.8806763 3.883606 6.060791 9.15094 6.060791 14.643219l0 0c0 11.437073 -9.264526 20.70868 -20.692932 20.70868l0 0c-11.428345 0 -20.692871 -9.271606 -20.692871 -20.70868z" fill-rule="evenodd"/><path stroke="#000000" stroke-width="1.0" stroke-linejoin="round" stroke-linecap="butt" d="m648.7244 295.09973l0 0c0 -11.437073 9.264526 -20.708649 20.692871 -20.708649l0 0c5.488098 0 10.751465 2.1817932 14.632141 6.0654297c3.8806763 3.883606 6.060791 9.15094 6.060791 14.643219l0 0c0 11.437073 -9.264526 20.70868 -20.692932 20.70868l0 0c-11.428345 0 -20.692871 -9.271606 -20.692871 -20.70868z" fill-rule="evenodd"/></g></svg>