<?xml version="1.0" encoding="UTF-8"?>
<!DOCTYPE svg PUBLIC "-//W3C//DTD SVG 1.1//EN" "http://www.w3.org/Graphics/SVG/1.1/DTD/svg11.dtd">
<svg xmlns="http://www.w3.org/2000/svg" version="1.1" width="720px" height="721px" style="shape-rendering:geometricPrecision; text-rendering:geometricPrecision; image-rendering:optimizeQuality; fill-rule:evenodd; clip-rule:evenodd" xmlns:xlink="http://www.w3.org/1999/xlink">
<g><path style="opacity:0.471" fill="#0c0905" d="M -0.5,0.5 C -0.5,0.166667 -0.5,-0.166667 -0.5,-0.5C 122.833,-0.5 246.167,-0.5 369.5,-0.5C 369.5,-0.166667 369.5,0.166667 369.5,0.5C 352.117,0.158457 334.784,0.825124 317.5,2.5C 318.263,1.73209 319.263,1.23209 320.5,1C 213.501,0.500002 106.501,0.333335 -0.5,0.5 Z"/></g>
<g><path style="opacity:0.483" fill="#030201" d="M 369.5,0.5 C 369.5,0.166667 369.5,-0.166667 369.5,-0.5C 486.167,-0.5 602.833,-0.5 719.5,-0.5C 719.5,239.833 719.5,480.167 719.5,720.5C 719.167,720.5 718.833,720.5 718.5,720.5C 718.5,612.833 718.5,505.167 718.5,397.5C 718.5,391.833 718.5,386.167 718.5,380.5C 718.975,359.447 718.309,338.447 716.5,317.5C 717.409,318.318 717.909,319.984 718,322.5C 718.833,215.333 718.666,108.333 717.5,1.5C 609.306,0.17201 500.973,0.17201 392.5,1.5C 384.85,0.856746 377.183,0.523412 369.5,0.5 Z"/></g>
<g><path style="opacity:1" fill="#707070" d="M -0.5,1.5 C -0.5,1.16667 -0.5,0.833333 -0.5,0.5C 106.501,0.333335 213.501,0.500002 320.5,1C 319.263,1.23209 318.263,1.73209 317.5,2.5C 317.167,2.5 316.833,2.5 316.5,2.5C 314.833,2.5 313.167,2.5 311.5,2.5C 207.668,1.50054 103.668,1.1672 -0.5,1.5 Z"/></g>
<g><path style="opacity:1" fill="#fed865" d="M 369.5,0.5 C 377.183,0.523412 384.85,0.856746 392.5,1.5C 399.971,2.95121 407.638,3.95121 415.5,4.5C 540.061,27.5732 630.227,95.9066 686,209.5C 701.418,242.588 711.252,277.255 715.5,313.5C 715.232,315.099 715.566,316.432 716.5,317.5C 718.309,338.447 718.975,359.447 718.5,380.5C 706.985,508.435 646.651,605.602 537.5,672C 494.237,696.365 447.903,711.199 398.5,716.5C 392.489,717.107 386.489,717.774 380.5,718.5C 365.167,718.5 349.833,718.5 334.5,718.5C 333.167,718.5 331.833,718.5 330.5,718.5C 211.607,705.329 119.44,648.995 54,549.5C -7.42784,444.88 -16.4278,335.88 27,222.5C 72.4424,119.061 148.942,49.8943 256.5,15C 276.339,9.42106 296.339,5.2544 316.5,2.5C 316.833,2.5 317.167,2.5 317.5,2.5C 334.784,0.825124 352.117,0.158457 369.5,0.5 Z"/></g>
<g><path style="opacity:1" fill="#6d6c6a" d="M 717.5,1.5 C 613.833,1.33334 510.166,1.5 406.5,2C 409.854,2.45518 413.187,2.95518 416.5,3.5C 416.5,4.16667 416.167,4.5 415.5,4.5C 407.638,3.95121 399.971,2.95121 392.5,1.5C 500.973,0.17201 609.306,0.17201 717.5,1.5 Z"/></g>
<g><path style="opacity:0.996" fill="#747473" d="M 717.5,1.5 C 718.666,108.333 718.833,215.333 718,322.5C 717.909,319.984 717.409,318.318 716.5,317.5C 715.566,316.432 715.232,315.099 715.5,313.5C 716.167,313.5 716.5,313.167 716.5,312.5C 717.499,209.001 717.833,105.335 717.5,1.5 Z"/></g>
<g><path style="opacity:1" fill="#120f07" d="M 336.5,50.5 C 340.5,50.5 344.5,50.5 348.5,50.5C 348.5,51.5 348.5,52.5 348.5,53.5C 344.5,53.5 340.5,53.5 336.5,53.5C 336.5,52.5 336.5,51.5 336.5,50.5 Z"/></g>
<g><path style="opacity:1" fill="#0f0c05" d="M 369.5,50.5 C 385.379,52.1136 385.379,53.1136 369.5,53.5C 369.5,52.5 369.5,51.5 369.5,50.5 Z"/></g>
<g><path style="opacity:1" fill="#292312" d="M 357.5,50.5 C 358.5,50.5 359.5,50.5 360.5,50.5C 360.5,51.5 360.5,52.5 360.5,53.5C 359.5,53.5 358.5,53.5 357.5,53.5C 357.5,52.5 357.5,51.5 357.5,50.5 Z"/></g>
<g><path style="opacity:1" fill="#1f1b10" d="M 390.5,52.5 C 391.5,52.5 392.5,52.5 393.5,52.5C 393.5,53.5 393.5,54.5 393.5,55.5C 392.5,55.5 391.5,55.5 390.5,55.5C 390.5,54.5 390.5,53.5 390.5,52.5 Z"/></g>
<g><path style="opacity:1" fill="#1d190e" d="M 308.5,53.5 C 310.833,53.5 313.167,53.5 315.5,53.5C 315.5,54.5 315.5,55.5 315.5,56.5C 311.481,56.6458 307.481,56.9791 303.5,57.5C 303.5,56.5 303.5,55.5 303.5,54.5C 305.415,54.7845 307.081,54.4511 308.5,53.5 Z"/></g>
<g><path style="opacity:1" fill="#4b4020" d="M 324.5,51.5 C 325.5,51.5 326.5,51.5 327.5,51.5C 327.5,52.8333 327.5,54.1667 327.5,55.5C 326.5,55.5 325.5,55.5 324.5,55.5C 324.5,54.1667 324.5,52.8333 324.5,51.5 Z"/></g>
<g><path style="opacity:1" fill="#141008" d="M 402.5,53.5 C 406.603,54.073 410.603,55.073 414.5,56.5C 411.216,57.657 407.882,57.8236 404.5,57C 403.027,56.2904 402.36,55.1238 402.5,53.5 Z"/></g>
<g><path style="opacity:1" fill="#151108" d="M 292.5,57.5 C 296.051,58.1855 296.217,59.1855 293,60.5C 292.517,59.552 292.351,58.552 292.5,57.5 Z"/></g>
<g><path style="opacity:1" fill="#211c11" d="M 423.5,57.5 C 424.5,57.5 425.5,57.5 426.5,57.5C 426.5,58.5 426.5,59.5 426.5,60.5C 425.5,60.5 424.5,60.5 423.5,60.5C 423.5,59.5 423.5,58.5 423.5,57.5 Z"/></g>
<g><path style="opacity:1" fill="#1d190f" d="M 280.5,59.5 C 281.5,59.5 282.5,59.5 283.5,59.5C 283.5,60.5 283.5,61.5 283.5,62.5C 280.016,63.5633 276.516,64.5633 273,65.5C 272.626,64.5838 272.126,63.7504 271.5,63C 274.571,61.7043 277.571,60.5377 280.5,59.5 Z"/></g>
<g><path style="opacity:1" fill="#1c180e" d="M 435.5,60.5 C 439.136,61.3255 442.803,61.9922 446.5,62.5C 446.5,63.5 446.5,64.5 446.5,65.5C 442.302,65.3234 438.302,64.3234 434.5,62.5C 434.863,61.8165 435.196,61.1499 435.5,60.5 Z"/></g>
<g><path style="opacity:1" fill="#595446" d="M 416.5,3.5 C 523.029,22.8109 605.863,77.4775 665,167.5C 692.9,211.978 710.067,260.311 716.5,312.5C 716.5,313.167 716.167,313.5 715.5,313.5C 711.252,277.255 701.418,242.588 686,209.5C 630.227,95.9066 540.061,27.5732 415.5,4.5C 416.167,4.5 416.5,4.16667 416.5,3.5 Z"/></g>
<g><path style="opacity:1" fill="#18140a" d="M 261.5,65.5 C 263.048,65.8212 263.715,66.8212 263.5,68.5C 260.752,68.5983 260.086,67.5983 261.5,65.5 Z"/></g>
<g><path style="opacity:1" fill="#1c180e" d="M 454.5,66.5 C 455.5,66.5 456.5,66.5 457.5,66.5C 456.754,70.31 455.754,70.31 454.5,66.5 Z"/></g>
<g><path style="opacity:1" fill="#1a160c" d="M 249.5,69.5 C 250.995,69.4148 251.995,70.0815 252.5,71.5C 249.035,73.2647 245.535,74.9313 242,76.5C 240.383,75.4642 240.216,74.2975 241.5,73C 244.374,72.0575 247.04,70.8908 249.5,69.5 Z"/></g>
<g><path style="opacity:1" fill="#130f07" d="M 466.5,70.5 C 470.099,71.6988 473.765,72.6988 477.5,73.5C 477.5,74.5 477.5,75.5 477.5,76.5C 473.938,76.0348 470.605,74.8681 467.5,73C 466.748,72.3292 466.414,71.4959 466.5,70.5 Z"/></g>
<g><path style="opacity:1" fill="#1b170d" d="M 230.5,77.5 C 232.048,77.8212 232.715,78.8212 232.5,80.5C 229.752,80.5983 229.086,79.5983 230.5,77.5 Z"/></g>
<g><path style="opacity:1" fill="#231e11" d="M 485.5,78.5 C 486.5,78.5 487.5,78.5 488.5,78.5C 488.5,79.5 488.5,80.5 488.5,81.5C 487.5,81.5 486.5,81.5 485.5,81.5C 485.5,80.5 485.5,79.5 485.5,78.5 Z"/></g>
<g><path style="opacity:1" fill="#1a160c" d="M 219.5,82.5 C 220.922,82.7496 221.922,83.583 222.5,85C 218.921,86.7059 215.421,88.5392 212,90.5C 210.511,89.5761 210.344,88.5761 211.5,87.5C 214.231,85.8084 216.898,84.1417 219.5,82.5 Z"/></g>
<g><path style="opacity:1" fill="#161309" d="M 496.5,83.5 C 499.93,84.7138 503.264,86.2138 506.5,88C 507.784,89.2975 507.617,90.4642 506,91.5C 503.414,89.4552 500.58,87.7885 497.5,86.5C 496.614,85.675 496.281,84.675 496.5,83.5 Z"/></g>
<g><path style="opacity:1" fill="#201c10" d="M 201.5,92.5 C 204.14,93.7936 204.14,95.127 201.5,96.5C 200.374,95.1916 200.374,93.8583 201.5,92.5 Z"/></g>
<g><path style="opacity:1" fill="#131007" d="M 515.5,93.5 C 517.625,94.3676 517.791,95.3676 516,96.5C 514.317,95.8235 514.15,94.8235 515.5,93.5 Z"/></g>
<g><path style="opacity:1" fill="#1a170d" d="M 191.5,98.5 C 192.267,99.172 192.934,100.005 193.5,101C 190.574,103.978 187.24,105.978 183.5,107C 183.043,106.586 182.709,106.086 182.5,105.5C 185.75,103.388 188.75,101.055 191.5,98.5 Z"/></g>
<g><path style="opacity:1" fill="#1c180e" d="M 525.5,99.5 C 528.472,101.322 531.472,103.156 534.5,105C 535.784,106.297 535.617,107.464 534,108.5C 531.252,106.542 528.418,104.709 525.5,103C 524.316,101.855 524.316,100.688 525.5,99.5 Z"/></g>
<g><path style="opacity:1" fill="#211c10" d="M 172.5,111.5 C 176.161,111.426 176.828,112.426 174.5,114.5C 173.081,113.995 172.415,112.995 172.5,111.5 Z"/></g>
<g><path style="opacity:1" fill="#231e11" d="M 542.5,112.5 C 544.355,112.272 545.188,112.939 545,114.5C 542.366,115.692 541.532,115.026 542.5,112.5 Z"/></g>
<g><path style="opacity:1" fill="#18140b" d="M 164.5,118.5 C 166.085,119.002 166.585,120.002 166,121.5C 163.54,122.958 161.373,124.791 159.5,127C 158.035,127.601 157.035,127.101 156.5,125.5C 159.212,123.115 161.878,120.782 164.5,118.5 Z"/></g>
<g><path style="opacity:1" fill="#1c180e" d="M 551.5,119.5 C 552.552,119.351 553.552,119.517 554.5,120C 556.208,122.043 558.208,123.71 560.5,125C 561.833,127.333 561.167,128.333 558.5,128C 555.505,125.525 553.172,122.692 551.5,119.5 Z"/></g>
<g><path style="opacity:1" fill="#272213" d="M 147.5,132.5 C 151.161,132.426 151.828,133.426 149.5,135.5C 148.081,134.995 147.415,133.995 147.5,132.5 Z"/></g>
<g><path style="opacity:1" fill="#272113" d="M 567.5,133.5 C 569.355,133.272 570.188,133.939 570,135.5C 567.366,136.692 566.532,136.026 567.5,133.5 Z"/></g>
<g><path style="opacity:1" fill="#1b170d" d="M 139.5,140.5 C 140.756,140.461 141.756,140.961 142.5,142C 139.614,145.245 136.614,147.912 133.5,150C 132.549,149.282 132.383,148.449 133,147.5C 135.372,145.297 137.539,142.963 139.5,140.5 Z"/></g>
<g><path style="opacity:1" fill="#1e1a0e" d="M 576.5,141.5 C 579.731,143.22 582.564,145.553 585,148.5C 585.5,150.667 584.667,151.5 582.5,151C 580.539,148.037 578.206,145.371 575.5,143C 576.056,142.617 576.389,142.117 576.5,141.5 Z"/></g>
<g><path style="opacity:1" fill="#181409" d="M 125.5,155.5 C 127.852,156.543 128.019,157.876 126,159.5C 124.232,158.318 124.065,156.985 125.5,155.5 Z"/></g>
<g><path style="opacity:1" fill="#211d10" d="M 591.5,156.5 C 594.14,157.794 594.14,159.127 591.5,160.5C 590.374,159.192 590.374,157.858 591.5,156.5 Z"/></g>
<g><path style="opacity:1" fill="#1a160c" d="M 117.5,165.5 C 118.675,165.281 119.675,165.614 120.5,166.5C 118.528,170.105 115.861,173.105 112.5,175.5C 111.417,174.635 111.251,173.635 112,172.5C 113.842,170.136 115.675,167.803 117.5,165.5 Z"/></g>
<g><path style="opacity:1" fill="#17140a" d="M 598.5,166.5 C 601.298,167.706 603.465,169.706 605,172.5C 607.182,174.966 606.682,176.133 603.5,176C 601.5,173.333 599.5,170.667 597.5,168C 598.056,167.617 598.389,167.117 598.5,166.5 Z"/></g>
<g><path style="opacity:1" fill="#171309" d="M 105.5,181.5 C 107.852,182.543 108.019,183.876 106,185.5C 104.232,184.318 104.065,182.985 105.5,181.5 Z"/></g>
<g><path style="opacity:1" fill="#211d10" d="M 611.5,182.5 C 614.14,183.794 614.14,185.127 611.5,186.5C 610.374,185.192 610.374,183.858 611.5,182.5 Z"/></g>
<g><path style="opacity:1" fill="#1a160c" d="M 98.5,191.5 C 100.273,192.314 100.773,193.648 100,195.5C 98.3023,198.19 96.3023,200.523 94,202.5C 93.5,202.167 93,201.833 92.5,201.5C 94.5113,198.139 96.5113,194.806 98.5,191.5 Z"/></g>
<g><path style="opacity:1" fill="#18140b" d="M 616.5,193.5 C 617.552,193.351 618.552,193.517 619.5,194C 621,196.167 622.5,198.333 624,200.5C 624.699,202.074 624.365,203.407 623,204.5C 620.579,200.929 618.413,197.262 616.5,193.5 Z"/></g>
<g><path style="opacity:1" fill="#221d10" d="M 87.5,209.5 C 91.0416,210.091 91.3749,211.425 88.5,213.5C 86.2997,212.675 85.9663,211.342 87.5,209.5 Z"/></g>
<g><path style="opacity:1" fill="#110e06" d="M 627.5,211.5 C 630.548,211.494 631.048,212.494 629,214.5C 627.961,213.756 627.461,212.756 627.5,211.5 Z"/></g>
<g><path style="opacity:1" fill="#1b170d" d="M 81.5,220.5 C 82.9953,220.415 83.9953,221.081 84.5,222.5C 83.1667,225.167 81.8333,227.833 80.5,230.5C 79.675,231.386 78.675,231.719 77.5,231.5C 78.5481,227.736 79.8815,224.069 81.5,220.5 Z"/></g>
<g><path style="opacity:1" fill="#141108" d="M 634.5,221.5 C 636.599,224.856 638.599,228.356 640.5,232C 639.975,232.692 639.308,233.192 638.5,233.5C 636.374,230.081 634.374,226.581 632.5,223C 633.416,222.722 634.082,222.222 634.5,221.5 Z"/></g>
<g><path style="opacity:1" fill="#0f0c05" d="M 73.5,239.5 C 75.6246,240.368 75.7913,241.368 74,242.5C 72.3167,241.824 72.1501,240.824 73.5,239.5 Z"/></g>
<g><path style="opacity:1" fill="#252012" d="M 642.5,240.5 C 644.97,241.36 645.137,242.694 643,244.5C 641.232,243.318 641.065,241.985 642.5,240.5 Z"/></g>
<g><path style="opacity:1" fill="#18140b" d="M 68.5,250.5 C 69.9953,250.415 70.9953,251.081 71.5,252.5C 70.1966,256.118 68.5299,259.451 66.5,262.5C 66.1667,261.833 65.8333,261.167 65.5,260.5C 66.5065,257.149 67.5065,253.816 68.5,250.5 Z"/></g>
<g><path style="opacity:1" fill="#18150b" d="M 646.5,252.5 C 648.411,252.574 649.578,253.574 650,255.5C 650.735,257.871 651.568,260.205 652.5,262.5C 652,262.833 651.5,263.167 651,263.5C 648.046,260.483 646.546,256.816 646.5,252.5 Z"/></g>
<g><path style="opacity:1" fill="#201b10" d="M 61.5,270.5 C 62.5,270.5 63.5,270.5 64.5,270.5C 64.5,271.5 64.5,272.5 64.5,273.5C 63.5,273.5 62.5,273.5 61.5,273.5C 61.5,272.5 61.5,271.5 61.5,270.5 Z"/></g>
<g><path style="opacity:1" fill="#1c180d" d="M 652.5,272.5 C 653.5,272.5 654.5,272.5 655.5,272.5C 655.5,273.5 655.5,274.5 655.5,275.5C 654.5,275.5 653.5,275.5 652.5,275.5C 652.5,274.5 652.5,273.5 652.5,272.5 Z"/></g>
<g><path style="opacity:1" fill="#161209" d="M 58.5,282.5 C 59.5,282.5 60.5,282.5 61.5,282.5C 60.5145,286.443 59.8478,290.443 59.5,294.5C 58.5,294.5 57.5,294.5 56.5,294.5C 57.1667,290.5 57.8333,286.5 58.5,282.5 Z"/></g>
<g><path style="opacity:1" fill="#211d11" d="M 655.5,283.5 C 657.124,283.36 658.29,284.027 659,285.5C 660.043,288.757 660.543,292.09 660.5,295.5C 659.5,295.5 658.5,295.5 657.5,295.5C 657.048,291.454 656.381,287.454 655.5,283.5 Z"/></g>
<g><path style="opacity:1" fill="#080603" d="M 49.5,359.5 C 49.5,358.167 49.5,356.833 49.5,355.5C 41.5,355.5 33.5,355.5 25.5,355.5C 24.1764,350.766 24.1764,345.933 25.5,341C 34.1858,340.832 42.8525,340.332 51.5,339.5C 50.6906,337.929 50.3573,336.262 50.5,334.5C 45.5082,334.001 40.5082,333.501 35.5,333C 30.1424,331.76 26.6424,328.593 25,323.5C 24.3333,317.167 24.3333,310.833 25,304.5C 27.2917,300.212 30.7917,297.378 35.5,296C 46.1667,295.333 56.8333,295.333 67.5,296C 68.8333,301 68.8333,306 67.5,311C 59.5876,311.183 51.7543,311.683 44,312.5C 43.2888,314.367 43.7888,315.867 45.5,317C 47.8098,317.497 50.1432,317.663 52.5,317.5C 52.5,316.5 52.5,315.5 52.5,314.5C 53.5,314.5 54.5,314.5 55.5,314.5C 55.5,315.833 55.5,317.167 55.5,318.5C 62.6406,318.314 67.8072,321.314 71,327.5C 71.6667,333.5 71.6667,339.5 71,345.5C 67.3558,353.244 61.1891,356.744 52.5,356C 52.0257,357.729 51.0257,358.895 49.5,359.5 Z"/></g>
<g><path style="opacity:1" fill="#050401" d="M 91.5,295.5 C 100.506,295.334 109.506,295.5 118.5,296C 123.588,305.353 127.754,315.187 131,325.5C 131.667,335.167 131.667,344.833 131,354.5C 125.25,355.641 119.416,355.807 113.5,355C 112.533,350.599 112.2,346.099 112.5,341.5C 107.5,341.5 102.5,341.5 97.5,341.5C 97.8,346.099 97.4667,350.599 96.5,355C 90.8431,355.499 85.1764,355.666 79.5,355.5C 79.3335,345.161 79.5002,334.828 80,324.5C 83.1619,314.504 86.9952,304.837 91.5,295.5 Z"/></g>
<g><path style="opacity:1" fill="#030201" d="M 160.5,297.5 C 160.5,311.833 160.5,326.167 160.5,340.5C 164.5,340.5 168.5,340.5 172.5,340.5C 172.5,335.5 172.5,330.5 172.5,325.5C 172.611,324.883 172.944,324.383 173.5,324C 179.084,323.194 184.584,323.361 190,324.5C 190.819,334.744 190.652,344.91 189.5,355C 173.592,355.824 157.759,355.657 142,354.5C 141.333,335.167 141.333,315.833 142,296.5C 147.75,295.359 153.584,295.193 159.5,296C 160.056,296.383 160.389,296.883 160.5,297.5 Z"/></g>
<g><path style="opacity:1" fill="#070502" d="M 232.5,354.5 C 232.5,349.833 232.5,345.167 232.5,340.5C 227.305,340.179 222.305,340.513 217.5,341.5C 217.8,346.099 217.467,350.599 216.5,355C 210.584,355.807 204.75,355.641 199,354.5C 196.286,333.523 200.453,314.023 211.5,296C 220.5,295.333 229.5,295.333 238.5,296C 242.906,304.872 246.739,314.039 250,323.5C 250.5,334.161 250.667,344.828 250.5,355.5C 244.31,355.823 238.31,355.49 232.5,354.5 Z"/></g>
<g><path style="opacity:1" fill="#080603" d="M 281.5,325.5 C 281.217,324.711 280.717,324.044 280,323.5C 279.5,333.828 279.334,344.161 279.5,354.5C 273.69,355.49 267.69,355.823 261.5,355.5C 261.333,335.831 261.5,316.164 262,296.5C 267.75,295.359 273.584,295.193 279.5,296C 283.636,301.784 287.636,307.617 291.5,313.5C 295.042,307.582 298.708,301.749 302.5,296C 308.167,295.333 313.833,295.333 319.5,296C 320,296.5 320.5,297 321,297.5C 321.667,316.5 321.667,335.5 321,354.5C 314.924,355.476 308.758,355.81 302.5,355.5C 302.667,344.828 302.5,334.161 302,323.5C 300.421,326.994 298.587,330.327 296.5,333.5C 292.833,336.167 289.167,336.167 285.5,333.5C 284.14,330.78 282.807,328.114 281.5,325.5 Z"/></g>
<g><path style="opacity:1" fill="#070502" d="M 343.5,295.5 C 352.506,295.334 361.506,295.5 370.5,296C 371.308,296.308 371.975,296.808 372.5,297.5C 376.573,306.975 380.073,316.641 383,326.5C 383.5,336.161 383.666,345.828 383.5,355.5C 377.491,355.666 371.491,355.499 365.5,355C 364.533,350.599 364.2,346.099 364.5,341.5C 359.5,341.5 354.5,341.5 349.5,341.5C 349.5,346.167 349.5,350.833 349.5,355.5C 343.5,355.5 337.5,355.5 331.5,355.5C 331.334,345.828 331.5,336.161 332,326.5C 335.146,315.895 338.979,305.562 343.5,295.5 Z"/></g>
<g><path style="opacity:1" fill="#040301" d="M 395.5,295.5 C 399.846,295.334 404.179,295.501 408.5,296C 414.333,302.5 420.167,309 426,315.5C 426.333,309.5 426.667,303.5 427,297.5C 427.5,297 428,296.5 428.5,296C 434.084,295.194 439.584,295.361 445,296.5C 445.667,315.833 445.667,335.167 445,354.5C 439.259,355.475 433.425,355.808 427.5,355.5C 427.666,351.154 427.499,346.821 427,342.5C 422.094,337.017 417.428,331.351 413,325.5C 412.667,335.167 412.333,344.833 412,354.5C 406.259,355.475 400.425,355.808 394.5,355.5C 394.179,335.424 394.513,315.424 395.5,295.5 Z"/></g>
<g><path style="opacity:1" fill="#060402" d="M 469.5,295.5 C 479.749,295.181 489.916,295.514 500,296.5C 500.667,301.167 500.667,305.833 500,310.5C 492.579,311.316 485.079,311.816 477.5,312C 477,312.5 476.5,313 476,313.5C 475.184,322.079 475.351,330.579 476.5,339C 483.833,339.333 491.167,339.667 498.5,340C 499,340.5 499.5,341 500,341.5C 500.799,346.087 500.632,350.587 499.5,355C 488.833,355.667 478.167,355.667 467.5,355C 461.525,353.361 458.025,349.528 457,343.5C 456.333,331.167 456.333,318.833 457,306.5C 459.505,300.822 463.671,297.155 469.5,295.5 Z"/></g>
<g><path style="opacity:1" fill="#0a0804" d="M 528.5,297.5 C 528.5,304.167 528.5,310.833 528.5,317.5C 533.363,317.819 538.03,317.486 542.5,316.5C 543.183,309.766 543.85,302.932 544.5,296C 549.833,295.333 555.167,295.333 560.5,296C 561,296.5 561.5,297 562,297.5C 562.667,316.5 562.667,335.5 562,354.5C 555.924,355.476 549.758,355.81 543.5,355.5C 543.5,348.5 543.5,341.5 543.5,334.5C 538.5,334.5 533.5,334.5 528.5,334.5C 528.5,341.5 528.5,348.5 528.5,355.5C 522.242,355.81 516.076,355.476 510,354.5C 509.167,335.158 509.334,315.825 510.5,296.5C 516.114,295.379 521.78,295.212 527.5,296C 528.056,296.383 528.389,296.883 528.5,297.5 Z"/></g>
<g><path style="opacity:1" fill="#080603" d="M 574.5,295.5 C 580.425,295.192 586.259,295.525 592,296.5C 592.333,310.5 592.667,324.5 593,338.5C 594.822,340.045 596.989,340.712 599.5,340.5C 602.011,340.712 604.178,340.045 606,338.5C 606.333,324.5 606.667,310.5 607,296.5C 612.803,295.184 618.636,295.184 624.5,296.5C 625.666,312.49 625.833,328.49 625,344.5C 623.092,350.74 618.925,354.573 612.5,356C 603.485,357.923 594.485,357.923 585.5,356C 580.16,354.59 576.327,351.423 574,346.5C 573.182,329.426 573.349,312.426 574.5,295.5 Z"/></g>
<g><path style="opacity:1" fill="#070502" d="M 669.5,354.5 C 669.823,347.978 669.49,341.645 668.5,335.5C 668.389,334.883 668.056,334.383 667.5,334C 663.514,333.501 659.514,333.334 655.5,333.5C 655.666,340.508 655.5,347.508 655,354.5C 648.924,355.476 642.758,355.81 636.5,355.5C 636.333,335.831 636.5,316.164 637,296.5C 643,295.167 649,295.167 655,296.5C 655.5,303.492 655.666,310.492 655.5,317.5C 656.833,317.5 658.167,317.5 659.5,317.5C 660.061,314.538 661.061,311.705 662.5,309C 661.293,307.7 660.626,306.2 660.5,304.5C 661.822,304.33 662.989,304.663 664,305.5C 665.455,302.088 667.288,298.921 669.5,296C 675.157,295.501 680.824,295.334 686.5,295.5C 683.544,303.076 680.877,310.743 678.5,318.5C 683.292,319.117 686.459,321.784 688,326.5C 688.667,335.833 688.667,345.167 688,354.5C 681.734,355.826 675.568,355.826 669.5,354.5 Z"/></g>
<g><path style="opacity:1" fill="#b89c49" d="M 160.5,297.5 C 161.496,311.323 161.829,325.323 161.5,339.5C 164.833,339.5 168.167,339.5 171.5,339.5C 171.181,334.637 171.514,329.97 172.5,325.5C 172.5,330.5 172.5,335.5 172.5,340.5C 168.5,340.5 164.5,340.5 160.5,340.5C 160.5,326.167 160.5,311.833 160.5,297.5 Z"/></g>
<g><path style="opacity:1" fill="#705f2d" d="M 528.5,297.5 C 529.49,303.645 529.823,309.978 529.5,316.5C 533.833,316.5 538.167,316.5 542.5,316.5C 538.03,317.486 533.363,317.819 528.5,317.5C 528.5,310.833 528.5,304.167 528.5,297.5 Z"/></g>
<g><path style="opacity:1" fill="#5e5026" d="M 39.5,303.5 C 46.344,302.181 53.344,302.181 60.5,303.5C 54.0252,304.197 47.3586,304.53 40.5,304.5C 40.5,303.833 40.1667,303.5 39.5,303.5 Z"/></g>
<g><path style="opacity:1" fill="#826f34" d="M 115.5,310.5 C 114.31,308.645 112.977,306.812 111.5,305C 107.167,304.333 102.833,304.333 98.5,305C 96.0096,309.483 93.6762,313.983 91.5,318.5C 92.4208,313.986 93.9208,309.653 96,305.5C 96.9025,304.299 98.0692,303.465 99.5,303C 103.167,302.333 106.833,302.333 110.5,303C 113.789,304.41 115.456,306.91 115.5,310.5 Z"/></g>
<g><path style="opacity:1" fill="#342c14" d="M 150.5,303.5 C 150.56,302.957 150.893,302.624 151.5,302.5C 152.499,317.485 152.833,332.485 152.5,347.5C 151.833,332.833 151.167,318.167 150.5,303.5 Z"/></g>
<g><path style="opacity:1" fill="#8c7738" d="M 236.5,313.5 C 234.734,310.812 233.067,307.979 231.5,305C 226.845,304.501 222.179,304.334 217.5,304.5C 217.611,303.883 217.944,303.383 218.5,303C 228.787,299.632 234.787,303.132 236.5,313.5 Z"/></g>
<g><path style="opacity:1" fill="#7c6a32" d="M 364.5,304.5 C 359.821,304.334 355.155,304.501 350.5,305C 349.956,305.717 349.289,306.217 348.5,306.5C 348.574,304.589 349.574,303.422 351.5,303C 355.5,302.333 359.5,302.333 363.5,303C 364.056,303.383 364.389,303.883 364.5,304.5 Z"/></g>
<g><path style="opacity:1" fill="#77652f" d="M 433.5,336.5 C 434.117,336.611 434.617,336.944 435,337.5C 435.168,326.152 435.668,314.819 436.5,303.5C 437.833,318.5 437.833,333.5 436.5,348.5C 435.869,344.329 434.869,340.329 433.5,336.5 Z"/></g>
<g><path style="opacity:1" fill="#6f5e2c" d="M 474.5,303.5 C 480.346,302.183 486.346,302.183 492.5,303.5C 487.544,304.494 482.544,304.827 477.5,304.5C 476.791,303.596 475.791,303.263 474.5,303.5 Z"/></g>
<g><path style="opacity:1" fill="#7d6b32" d="M 551.5,325.5 C 552.833,325.833 552.833,326.167 551.5,326.5C 541.167,326.5 530.833,326.5 520.5,326.5C 520.831,333.863 520.497,341.197 519.5,348.5C 518.167,333.5 518.167,318.5 519.5,303.5C 520.497,310.803 520.831,318.137 520.5,325.5C 530.833,325.5 541.167,325.5 551.5,325.5 Z"/></g>
<g><path style="opacity:1" fill="#69592a" d="M 551.5,326.5 C 552.833,326.167 552.833,325.833 551.5,325.5C 551.169,318.137 551.503,310.803 552.5,303.5C 553.833,318.5 553.833,333.5 552.5,348.5C 551.503,341.197 551.169,333.863 551.5,326.5 Z"/></g>
<g><path style="opacity:1" fill="#020100" d="M 115.5,310.5 C 115.707,313.241 116.707,315.574 118.5,317.5C 120.288,322.322 121.288,327.322 121.5,332.5C 110.833,332.5 100.167,332.5 89.5,332.5C 89.3498,327.699 90.0165,323.033 91.5,318.5C 93.6762,313.983 96.0096,309.483 98.5,305C 102.833,304.333 107.167,304.333 111.5,305C 112.977,306.812 114.31,308.645 115.5,310.5 Z"/></g>
<g><path style="opacity:1" fill="#020200" d="M 217.5,304.5 C 222.179,304.334 226.845,304.501 231.5,305C 233.067,307.979 234.734,310.812 236.5,313.5C 236.707,316.241 237.707,318.574 239.5,320.5C 240.162,324.466 240.495,328.466 240.5,332.5C 229.833,332.5 219.167,332.5 208.5,332.5C 209.025,327.4 210.025,322.4 211.5,317.5C 212.931,316.22 213.598,314.553 213.5,312.5C 214.931,311.22 215.598,309.553 215.5,307.5C 216.906,307.027 217.573,306.027 217.5,304.5 Z"/></g>
<g><path style="opacity:1" fill="#020200" d="M 364.5,304.5 C 364.427,306.027 365.094,307.027 366.5,307.5C 366.707,310.241 367.707,312.574 369.5,314.5C 369.707,317.241 370.707,319.574 372.5,321.5C 373.114,325.135 373.448,328.802 373.5,332.5C 362.833,332.5 352.167,332.5 341.5,332.5C 341.552,328.802 341.886,325.135 342.5,321.5C 343.931,320.22 344.598,318.553 344.5,316.5C 345.931,315.22 346.598,313.553 346.5,311.5C 347.931,310.22 348.598,308.553 348.5,306.5C 349.289,306.217 349.956,305.717 350.5,305C 355.155,304.501 359.821,304.334 364.5,304.5 Z"/></g>
<g><path style="opacity:1" fill="#b49947" d="M 409.5,309.5 C 407.537,308.04 405.704,306.373 404,304.5C 403.667,319.167 403.333,333.833 403,348.5C 402.333,333.5 402.333,318.5 403,303.5C 403.333,303.167 403.667,302.833 404,302.5C 406.454,304.441 408.287,306.775 409.5,309.5 Z"/></g>
<g><path style="opacity:1" fill="#867236" d="M 217.5,304.5 C 217.573,306.027 216.906,307.027 215.5,307.5C 215.427,305.973 216.094,304.973 217.5,304.5 Z"/></g>
<g><path style="opacity:1" fill="#9a843e" d="M 276.5,305.5 C 274.958,304.699 273.292,304.366 271.5,304.5C 271.667,319.17 271.5,333.837 271,348.5C 270.333,333.5 270.333,318.5 271,303.5C 273.609,302.091 275.442,302.758 276.5,305.5 Z"/></g>
<g><path style="opacity:1" fill="#8f7a39" d="M 673.5,303.5 C 674.097,303.735 674.43,304.235 674.5,305C 673.804,306.893 672.97,308.726 672,310.5C 671.865,308.078 672.365,305.745 673.5,303.5 Z"/></g>
<g><path style="opacity:1" fill="#a28a41" d="M 276.5,305.5 C 277.906,305.973 278.573,306.973 278.5,308.5C 277.094,308.027 276.427,307.027 276.5,305.5 Z"/></g>
<g><path style="opacity:1" fill="#b79c49" d="M 303.5,308.5 C 304.217,303.903 306.717,302.236 311,303.5C 311.667,318.5 311.667,333.5 311,348.5C 310.5,333.837 310.333,319.17 310.5,304.5C 309.127,304.343 307.793,304.51 306.5,305C 305.837,306.518 304.837,307.685 303.5,308.5 Z"/></g>
<g><path style="opacity:1" fill="#a58c42" d="M 364.5,304.5 C 365.906,304.973 366.573,305.973 366.5,307.5C 365.094,307.027 364.427,306.027 364.5,304.5 Z"/></g>
<g><path style="opacity:1" fill="#8c7738" d="M 348.5,306.5 C 348.598,308.553 347.931,310.22 346.5,311.5C 346.402,309.447 347.069,307.78 348.5,306.5 Z"/></g>
<g><path style="opacity:1" fill="#8e7938" d="M 215.5,307.5 C 215.598,309.553 214.931,311.22 213.5,312.5C 213.402,310.447 214.069,308.78 215.5,307.5 Z"/></g>
<g><path style="opacity:1" fill="#a08840" d="M 278.5,308.5 C 279.906,308.973 280.573,309.973 280.5,311.5C 279.094,311.027 278.427,310.027 278.5,308.5 Z"/></g>
<g><path style="opacity:1" fill="#947e3b" d="M 366.5,307.5 C 368.293,309.426 369.293,311.759 369.5,314.5C 367.707,312.574 366.707,310.241 366.5,307.5 Z"/></g>
<g><path style="opacity:1" fill="#a28a41" d="M 303.5,308.5 C 303.573,310.027 302.906,311.027 301.5,311.5C 301.427,309.973 302.094,308.973 303.5,308.5 Z"/></g>
<g><path style="opacity:1" fill="#f1cd60" d="M 110.5,323.5 C 106.971,325.423 102.971,326.089 98.5,325.5C 99.6628,321.518 100.829,317.518 102,313.5C 104,310.833 106,310.833 108,313.5C 109.15,316.768 109.984,320.101 110.5,323.5 Z"/></g>
<g><path style="opacity:1" fill="#947e3b" d="M 115.5,310.5 C 117.293,312.426 118.293,314.759 118.5,317.5C 116.707,315.574 115.707,313.241 115.5,310.5 Z"/></g>
<g><path style="opacity:1" fill="#f0cd60" d="M 230.5,324.5 C 226.702,325.483 222.702,325.817 218.5,325.5C 219.195,321.055 220.362,316.722 222,312.5C 224.776,310.86 226.776,311.527 228,314.5C 228.943,317.824 229.776,321.157 230.5,324.5 Z"/></g>
<g><path style="opacity:1" fill="#9f873f" d="M 280.5,311.5 C 281.906,311.973 282.573,312.973 282.5,314.5C 281.094,314.027 280.427,313.027 280.5,311.5 Z"/></g>
<g><path style="opacity:1" fill="#957f3b" d="M 301.5,311.5 C 301.573,313.027 300.906,314.027 299.5,314.5C 299.427,312.973 300.094,311.973 301.5,311.5 Z"/></g>
<g><path style="opacity:1" fill="#f1cd60" d="M 363.5,325.5 C 359.298,325.817 355.298,325.483 351.5,324.5C 351.814,321.053 352.648,317.72 354,314.5C 355.565,311.106 357.565,310.772 360,313.5C 361.477,317.43 362.644,321.43 363.5,325.5 Z"/></g>
<g><path style="opacity:1" fill="#917b3a" d="M 346.5,311.5 C 346.598,313.553 345.931,315.22 344.5,316.5C 344.402,314.447 345.069,312.78 346.5,311.5 Z"/></g>
<g><path style="opacity:1" fill="#96803c" d="M 409.5,309.5 C 412.903,311.9 415.57,314.9 417.5,318.5C 414.097,316.1 411.43,313.1 409.5,309.5 Z"/></g>
<g><path style="opacity:1" fill="#927d3a" d="M 213.5,312.5 C 213.598,314.553 212.931,316.22 211.5,317.5C 211.402,315.447 212.069,313.78 213.5,312.5 Z"/></g>
<g><path style="opacity:1" fill="#ae9445" d="M 474.5,303.5 C 475.791,303.263 476.791,303.596 477.5,304.5C 472.72,303.641 469.22,305.308 467,309.5C 466.333,320.5 466.333,331.5 467,342.5C 468.339,345.094 470.506,346.594 473.5,347C 479.833,347.333 486.167,347.667 492.5,348C 485.5,348.667 478.5,348.667 471.5,348C 468.943,347.315 467.109,345.815 466,343.5C 465.333,331.833 465.333,320.167 466,308.5C 467.674,304.911 470.507,303.245 474.5,303.5 Z"/></g>
<g><path style="opacity:1" fill="#97803c" d="M 669.5,312.5 C 670.097,312.735 670.43,313.235 670.5,314C 669.804,315.893 668.97,317.726 668,319.5C 667.865,317.078 668.365,314.745 669.5,312.5 Z"/></g>
<g><path style="opacity:1" fill="#957f3b" d="M 236.5,313.5 C 238.293,315.426 239.293,317.759 239.5,320.5C 237.707,318.574 236.707,316.241 236.5,313.5 Z"/></g>
<g><path style="opacity:1" fill="#9d853f" d="M 282.5,314.5 C 283.906,314.973 284.573,315.973 284.5,317.5C 283.094,317.027 282.427,316.027 282.5,314.5 Z"/></g>
<g><path style="opacity:1" fill="#947e3b" d="M 299.5,314.5 C 299.573,316.027 298.906,317.027 297.5,317.5C 297.427,315.973 298.094,314.973 299.5,314.5 Z"/></g>
<g><path style="opacity:1" fill="#957f3b" d="M 369.5,314.5 C 371.293,316.426 372.293,318.759 372.5,321.5C 370.707,319.574 369.707,317.241 369.5,314.5 Z"/></g>
<g><path style="opacity:1" fill="#9a833e" d="M 284.5,317.5 C 285.906,317.973 286.573,318.973 286.5,320.5C 285.094,320.027 284.427,319.027 284.5,317.5 Z"/></g>
<g><path style="opacity:1" fill="#937d3b" d="M 297.5,317.5 C 297.573,319.027 296.906,320.027 295.5,320.5C 295.427,318.973 296.094,317.973 297.5,317.5 Z"/></g>
<g><path style="opacity:1" fill="#957f3b" d="M 344.5,316.5 C 344.598,318.553 343.931,320.22 342.5,321.5C 342.402,319.447 343.069,317.78 344.5,316.5 Z"/></g>
<g><path style="opacity:1" fill="#9a833d" d="M 286.5,320.5 C 287.857,321.685 289.357,322.685 291,323.5C 292.643,322.685 294.143,321.685 295.5,320.5C 294.538,324.146 292.205,325.313 288.5,324C 287.177,323.184 286.511,322.017 286.5,320.5 Z"/></g>
<g><path style="opacity:1" fill="#937d3b" d="M 417.5,318.5 C 420.903,320.9 423.57,323.9 425.5,327.5C 422.097,325.1 419.43,322.1 417.5,318.5 Z"/></g>
<g><path style="opacity:1" fill="#8e7938" d="M 281.5,325.5 C 280.833,335.167 280.167,344.833 279.5,354.5C 279.334,344.161 279.5,333.828 280,323.5C 280.717,324.044 281.217,324.711 281.5,325.5 Z"/></g>
<g><path style="opacity:1" fill="#97803c" d="M 39.5,303.5 C 40.1667,303.5 40.5,303.833 40.5,304.5C 37.8517,304.738 36.0183,306.072 35,308.5C 34.3333,312.5 34.3333,316.5 35,320.5C 35.9025,321.701 37.0692,322.535 38.5,323C 44.8687,324.207 51.202,325.54 57.5,327C 60.3941,327.869 61.5608,329.702 61,332.5C 60.1667,330.333 58.6667,328.833 56.5,328C 49.3632,326.84 42.3632,325.173 35.5,323C 35,322.5 34.5,322 34,321.5C 33.3333,316.833 33.3333,312.167 34,307.5C 35.0183,305.072 36.8517,303.738 39.5,303.5 Z"/></g>
<g><path style="opacity:1" fill="#7c6932" d="M 110.5,323.5 C 111.404,324.209 111.737,325.209 111.5,326.5C 106.968,326.818 102.634,326.485 98.5,325.5C 102.971,326.089 106.971,325.423 110.5,323.5 Z"/></g>
<g><path style="opacity:1" fill="#72612e" d="M 230.5,324.5 C 231.043,324.56 231.376,324.893 231.5,325.5C 227.016,326.811 222.683,326.811 218.5,325.5C 222.702,325.817 226.702,325.483 230.5,324.5 Z"/></g>
<g><path style="opacity:1" fill="#c9ab50" d="M 645.5,303.5 C 646.492,310.648 646.825,317.981 646.5,325.5C 669.167,325.833 669.167,326.167 646.5,326.5C 646.666,333.841 646.5,341.174 646,348.5C 645.5,333.504 645.333,318.504 645.5,303.5 Z"/></g>
<g><path style="opacity:1" fill="#9a833e" d="M 678.5,330.5 C 678.5,331.167 678.167,331.5 677.5,331.5C 677.489,329.983 676.823,328.816 675.5,328C 672.576,327.012 669.576,326.346 666.5,326C 669.167,325.333 671.833,325.333 674.5,326C 676.751,326.748 678.084,328.248 678.5,330.5 Z"/></g>
<g><path style="opacity:1" fill="#3e3518" d="M 180.5,331.5 C 180.56,330.957 180.893,330.624 181.5,330.5C 182.817,336.654 182.817,342.654 181.5,348.5C 181.822,342.642 181.489,336.975 180.5,331.5 Z"/></g>
<g><path style="opacity:1" fill="#907b39" d="M 425.5,327.5 C 428.903,329.9 431.57,332.9 433.5,336.5C 430.097,334.1 427.43,331.1 425.5,327.5 Z"/></g>
<g><path style="opacity:1" fill="#574a22" d="M 239.5,320.5 C 241.065,322.509 242.065,324.843 242.5,327.5C 241.539,329.265 241.205,331.265 241.5,333.5C 230.321,333.828 219.321,333.495 208.5,332.5C 219.167,332.5 229.833,332.5 240.5,332.5C 240.495,328.466 240.162,324.466 239.5,320.5 Z"/></g>
<g><path style="opacity:1" fill="#76652f" d="M 91.5,318.5 C 90.0165,323.033 89.3498,327.699 89.5,332.5C 100.167,332.5 110.833,332.5 121.5,332.5C 121.5,333.167 121.5,333.833 121.5,334.5C 110.833,334.5 100.167,334.5 89.5,334.5C 89.8266,339.214 89.4933,343.88 88.5,348.5C 87.3354,341.189 87.1687,333.856 88,326.5C 88.7048,323.524 89.8714,320.858 91.5,318.5 Z"/></g>
<g><path style="opacity:1" fill="#99823d" d="M 211.5,317.5 C 210.025,322.4 209.025,327.4 208.5,332.5C 219.321,333.495 230.321,333.828 241.5,333.5C 241.205,331.265 241.539,329.265 242.5,327.5C 242.666,334.508 242.5,341.508 242,348.5C 241.501,343.845 241.334,339.179 241.5,334.5C 230.5,334.5 219.5,334.5 208.5,334.5C 208.666,339.179 208.499,343.845 208,348.5C 207.333,340.833 207.333,333.167 208,325.5C 208.705,322.524 209.871,319.858 211.5,317.5 Z"/></g>
<g><path style="opacity:1" fill="#887336" d="M 342.5,321.5 C 341.886,325.135 341.552,328.802 341.5,332.5C 352.167,332.5 362.833,332.5 373.5,332.5C 373.448,328.802 373.114,325.135 372.5,321.5C 373.222,321.918 373.722,322.584 374,323.5C 374.667,331.833 374.667,340.167 374,348.5C 373.501,343.845 373.334,339.179 373.5,334.5C 362.833,334.5 352.167,334.5 341.5,334.5C 341.666,339.179 341.499,343.845 341,348.5C 340.333,340.167 340.333,331.833 341,323.5C 341.278,322.584 341.778,321.918 342.5,321.5 Z"/></g>
<g><path style="opacity:1" fill="#76642f" d="M 351.5,324.5 C 355.298,325.483 359.298,325.817 363.5,325.5C 359.317,326.811 354.984,326.811 350.5,325.5C 350.624,324.893 350.957,324.56 351.5,324.5 Z"/></g>
<g><path style="opacity:1" fill="#71602d" d="M 678.5,330.5 C 679.817,336.346 679.817,342.346 678.5,348.5C 677.505,342.872 677.171,337.206 677.5,331.5C 678.167,331.5 678.5,331.167 678.5,330.5 Z"/></g>
<g><path style="opacity:1" fill="#8d7838" d="M 58.5,346.5 C 60.8762,342.544 62.0429,338.211 62,333.5C 62.6667,336.5 62.6667,339.5 62,342.5C 61.5017,344.544 60.335,345.878 58.5,346.5 Z"/></g>
<g><path style="opacity:1" fill="#c1a44d" d="M 118.5,317.5 C 120.163,319.493 121.33,321.826 122,324.5C 122.667,332.5 122.667,340.5 122,348.5C 121.501,343.845 121.334,339.179 121.5,334.5C 121.5,333.833 121.5,333.167 121.5,332.5C 121.288,327.322 120.288,322.322 118.5,317.5 Z"/></g>
<g><path style="opacity:1" fill="#837034" d="M 664.5,337.5 C 665.209,336.596 666.209,336.263 667.5,336.5C 667.5,337.833 667.5,339.167 667.5,340.5C 666.167,340.5 664.833,340.5 663.5,340.5C 663.263,339.209 663.596,338.209 664.5,337.5 Z"/></g>
<g><path style="opacity:1" fill="#000000" d="M 664.5,337.5 C 666.337,337.639 666.67,338.306 665.5,339.5C 664.702,339.043 664.369,338.376 664.5,337.5 Z"/></g>
<g><path style="opacity:1" fill="#594c24" d="M 217.5,341.5 C 222.305,340.513 227.305,340.179 232.5,340.5C 232.5,345.167 232.5,349.833 232.5,354.5C 231.515,350.366 231.182,346.032 231.5,341.5C 226.833,341.5 222.167,341.5 217.5,341.5 Z"/></g>
<g><path style="opacity:1" fill="#a98f43" d="M 582.5,303.5 C 583.331,315.993 583.831,328.66 584,341.5C 587.483,346.807 592.483,349.14 599,348.5C 602.552,348.359 606.052,347.859 609.5,347C 611.667,346.167 613.167,344.667 614,342.5C 615.277,329.569 615.943,316.569 616,303.5C 616.667,316.167 616.667,328.833 616,341.5C 614.73,345.77 611.896,348.27 607.5,349C 602.167,349.667 596.833,349.667 591.5,349C 588.452,348.394 585.952,346.894 584,344.5C 582.536,330.932 582.036,317.265 582.5,303.5 Z"/></g>
<g><path style="opacity:1" fill="#9f873f" d="M 58.5,346.5 C 56.8805,348.238 54.8805,348.738 52.5,348C 54.4357,347.187 56.4357,346.687 58.5,346.5 Z"/></g>
<g><path style="opacity:1" fill="#b39948" d="M 150.5,303.5 C 151.167,318.167 151.833,332.833 152.5,347.5C 161.833,347.5 171.167,347.5 180.5,347.5C 180.5,342.167 180.5,336.833 180.5,331.5C 181.489,336.975 181.822,342.642 181.5,348.5C 171.167,348.5 160.833,348.5 150.5,348.5C 150.5,333.5 150.5,318.5 150.5,303.5 Z"/></g>
<g><path style="opacity:1" fill="#18140b" d="M 667.5,349.5 C 667.5,353.167 667.5,356.833 667.5,360.5C 666.5,360.5 665.5,360.5 664.5,360.5C 664.5,356.833 664.5,353.167 664.5,349.5C 665.5,349.5 666.5,349.5 667.5,349.5 Z"/></g>
<g><path style="opacity:1" fill="#7c6931" d="M 25.5,355.5 C 33.5,355.5 41.5,355.5 49.5,355.5C 49.5,356.833 49.5,358.167 49.5,359.5C 48.596,358.791 48.2627,357.791 48.5,356.5C 40.6484,356.825 32.9818,356.492 25.5,355.5 Z"/></g>
<g><path style="opacity:1" fill="#a78e43" d="M 668.5,335.5 C 669.49,341.645 669.823,347.978 669.5,354.5C 668.532,356.607 668.198,358.941 668.5,361.5C 666.901,361.768 665.568,361.434 664.5,360.5C 665.5,360.5 666.5,360.5 667.5,360.5C 667.5,356.833 667.5,353.167 667.5,349.5C 668.486,345.03 668.819,340.363 668.5,335.5 Z"/></g>
<g><path style="opacity:1" fill="#141008" d="M 49.5,368.5 C 50.5,368.5 51.5,368.5 52.5,368.5C 52.5,372.5 52.5,376.5 52.5,380.5C 51.5,380.5 50.5,380.5 49.5,380.5C 49.5,376.5 49.5,372.5 49.5,368.5 Z"/></g>
<g><path style="opacity:1" fill="#060502" d="M 664.5,370.5 C 665.675,370.281 666.675,370.614 667.5,371.5C 665.948,372.798 664.948,372.465 664.5,370.5 Z"/></g>
<g><path style="opacity:1" fill="#151209" d="M 663.5,381.5 C 664.5,381.5 665.5,381.5 666.5,381.5C 666.665,384.85 666.498,388.183 666,391.5C 665.692,392.308 665.192,392.975 664.5,393.5C 663.509,389.555 663.176,385.555 663.5,381.5 Z"/></g>
<g><path style="opacity:1" fill="#1c180d" d="M 50.5,389.5 C 51.5,389.5 52.5,389.5 53.5,389.5C 53.5,390.5 53.5,391.5 53.5,392.5C 52.5,392.5 51.5,392.5 50.5,392.5C 50.5,391.5 50.5,390.5 50.5,389.5 Z"/></g>
<g><path style="opacity:1" fill="#070502" d="M 317.5,395.5 C 326.559,395.154 335.559,395.654 344.5,397C 348.493,397.998 351.659,400.165 354,403.5C 355.632,417.74 355.965,432.073 355,446.5C 354.484,449.034 353.317,451.2 351.5,453C 344.635,456.716 337.302,458.216 329.5,457.5C 321.095,458.525 313.595,456.525 307,451.5C 305.725,449.283 304.725,446.949 304,444.5C 303.333,432.167 303.333,419.833 304,407.5C 305.07,404.758 306.57,402.258 308.5,400C 311.592,398.454 314.592,396.954 317.5,395.5 Z"/></g>
<g><path style="opacity:1" fill="#050301" d="M 263.5,396.5 C 274.082,396.18 284.582,396.513 295,397.5C 295.667,402.167 295.667,406.833 295,411.5C 287.579,412.316 280.079,412.816 272.5,413C 272,413.5 271.5,414 271,414.5C 270.333,422.5 270.333,430.5 271,438.5C 271.5,439 272,439.5 272.5,440C 280.079,440.184 287.579,440.684 295,441.5C 295.802,446.419 295.635,451.252 294.5,456C 284.167,456.667 273.833,456.667 263.5,456C 257.667,454.167 253.833,450.333 252,444.5C 251.333,432.167 251.333,419.833 252,407.5C 254.437,402.226 258.271,398.56 263.5,396.5 Z"/></g>
<g><path style="opacity:1" fill="#060402" d="M 366.5,396.5 C 379.837,396.333 393.171,396.5 406.5,397C 407.802,401.782 407.802,406.615 406.5,411.5C 402.906,412.426 399.24,412.759 395.5,412.5C 395.5,421.833 395.5,431.167 395.5,440.5C 398.85,440.335 402.183,440.502 405.5,441C 406,441.5 406.5,442 407,442.5C 407.667,446.833 407.667,451.167 407,455.5C 400.244,456.158 393.41,456.491 386.5,456.5C 379.59,456.491 372.756,456.158 366,455.5C 365.333,450.833 365.333,446.167 366,441.5C 369.394,440.544 372.894,440.211 376.5,440.5C 376.5,431.167 376.5,421.833 376.5,412.5C 372.894,412.789 369.394,412.456 366,411.5C 365.222,406.416 365.389,401.416 366.5,396.5 Z"/></g>
<g><path style="opacity:1" fill="#080603" d="M 437.5,427.5 C 437.44,426.957 437.107,426.624 436.5,426.5C 435.502,436.144 435.168,445.81 435.5,455.5C 429.766,456.825 423.932,456.825 418,455.5C 417.333,436.167 417.333,416.833 418,397.5C 422.748,396.365 427.581,396.198 432.5,397C 438.333,403.5 444.167,410 450,416.5C 450.333,410.167 450.667,403.833 451,397.5C 457,396.167 463,396.167 469,397.5C 469.667,416.833 469.667,436.167 469,455.5C 463.25,456.641 457.416,456.807 451.5,456C 450.697,451.586 450.197,447.086 450,442.5C 445.622,437.627 441.455,432.627 437.5,427.5 Z"/></g>
<g><path style="opacity:1" fill="#18150b" d="M 52.5,401.5 C 53.5,401.5 54.5,401.5 55.5,401.5C 56.0209,405.481 56.3542,409.481 56.5,413.5C 55.5,413.5 54.5,413.5 53.5,413.5C 53.3542,409.481 53.0209,405.481 52.5,401.5 Z"/></g>
<g><path style="opacity:1" fill="#957f3b" d="M 261.5,411.5 C 261.167,411.5 260.833,411.5 260.5,411.5C 260.84,408.325 262.507,406.159 265.5,405C 272.753,403.443 280.086,403.11 287.5,404C 280.437,404.16 273.437,404.827 266.5,406C 263.887,407.107 262.22,408.94 261.5,411.5 Z"/></g>
<g><path style="opacity:1" fill="#211c11" d="M 661.5,402.5 C 662.5,402.5 663.5,402.5 664.5,402.5C 664.5,403.5 664.5,404.5 664.5,405.5C 663.5,405.5 662.5,405.5 661.5,405.5C 661.5,404.5 661.5,403.5 661.5,402.5 Z"/></g>
<g><path style="opacity:1" fill="#050401" d="M 341.5,405.5 C 342.836,407.01 344.003,408.677 345,410.5C 345.955,421.931 345.622,433.264 344,444.5C 334.799,450.765 325.299,451.099 315.5,445.5C 313.05,433.555 312.883,421.555 315,409.5C 316.543,407.622 318.376,406.122 320.5,405C 327.536,404.28 334.536,404.447 341.5,405.5 Z"/></g>
<g><path style="opacity:1" fill="#b79c49" d="M 454.5,434.5 C 456.193,435.475 457.693,436.808 459,438.5C 459.333,426.833 459.667,415.167 460,403.5C 460.667,418.833 460.667,434.167 460,449.5C 459.667,446.5 459.333,443.5 459,440.5C 456.898,438.905 455.398,436.905 454.5,434.5 Z"/></g>
<g><path style="opacity:1" fill="#a48b41" d="M 399.5,404.5 C 395.167,404.5 390.833,404.5 386.5,404.5C 386.5,419.167 386.5,433.833 386.5,448.5C 390.833,448.5 395.167,448.5 399.5,448.5C 379.221,449.624 374.554,449.624 385.5,448.5C 385.5,433.833 385.5,419.167 385.5,404.5C 374.554,403.376 379.221,403.376 399.5,404.5 Z"/></g>
<g><path style="opacity:1" fill="#332b15" d="M 399.5,404.5 C 395.702,405.483 391.702,405.817 387.5,405.5C 387.5,419.5 387.5,433.5 387.5,447.5C 391.702,447.183 395.702,447.517 399.5,448.5C 395.167,448.5 390.833,448.5 386.5,448.5C 386.5,433.833 386.5,419.167 386.5,404.5C 390.833,404.5 395.167,404.5 399.5,404.5 Z"/></g>
<g><path style="opacity:1" fill="#96803c" d="M 430.5,407.5 C 429.542,407.047 428.708,406.381 428,405.5C 427.667,420.167 427.333,434.833 427,449.5C 426.167,434.156 426.334,418.822 427.5,403.5C 429.288,404.283 430.288,405.616 430.5,407.5 Z"/></g>
<g><path style="opacity:1" fill="#efcb5f" d="M 324.5,411.5 C 327.85,411.335 331.183,411.502 334.5,412C 335.667,412.5 336.5,413.333 337,414.5C 337.667,422.833 337.667,431.167 337,439.5C 336.5,440 336,440.5 335.5,441C 331.833,441.667 328.167,441.667 324.5,441C 324,440.5 323.5,440 323,439.5C 322.333,430.833 322.333,422.167 323,413.5C 323.717,412.956 324.217,412.289 324.5,411.5 Z"/></g>
<g><path style="opacity:1" fill="#97813c" d="M 430.5,407.5 C 433.903,409.9 436.57,412.9 438.5,416.5C 435.097,414.1 432.43,411.1 430.5,407.5 Z"/></g>
<g><path style="opacity:1" fill="#8f7a39" d="M 341.5,405.5 C 334.536,404.447 327.536,404.28 320.5,405C 318.376,406.122 316.543,407.622 315,409.5C 312.883,421.555 313.05,433.555 315.5,445.5C 314.034,444.653 313.2,443.32 313,441.5C 312.069,430.427 312.403,419.427 314,408.5C 316.342,405.246 319.509,403.412 323.5,403C 327.5,402.333 331.5,402.333 335.5,403C 337.974,403.037 339.974,403.87 341.5,405.5 Z"/></g>
<g><path style="opacity:1" fill="#857235" d="M 341.5,405.5 C 344.735,406.595 346.568,408.928 347,412.5C 347.667,421.833 347.667,431.167 347,440.5C 346.332,444.499 344.165,447.332 340.5,449C 333.486,450.954 326.486,450.954 319.5,449C 317.456,448.502 316.122,447.335 315.5,445.5C 325.299,451.099 334.799,450.765 344,444.5C 345.622,433.264 345.955,421.931 345,410.5C 344.003,408.677 342.836,407.01 341.5,405.5 Z"/></g>
<g><path style="opacity:1" fill="#19150b" d="M 659.5,414.5 C 660.5,414.5 661.5,414.5 662.5,414.5C 661.962,418.524 661.295,422.524 660.5,426.5C 659.5,426.5 658.5,426.5 657.5,426.5C 658.486,422.557 659.152,418.557 659.5,414.5 Z"/></g>
<g><path style="opacity:1" fill="#937d3b" d="M 438.5,416.5 C 441.903,418.9 444.57,421.9 446.5,425.5C 443.097,423.1 440.43,420.1 438.5,416.5 Z"/></g>
<g><path style="opacity:1" fill="#241f12" d="M 55.5,422.5 C 56.5,422.5 57.5,422.5 58.5,422.5C 58.5,423.5 58.5,424.5 58.5,425.5C 57.5,425.5 56.5,425.5 55.5,425.5C 55.5,424.5 55.5,423.5 55.5,422.5 Z"/></g>
<g><path style="opacity:1" fill="#6e5e2c" d="M 437.5,427.5 C 436.833,436.833 436.167,446.167 435.5,455.5C 435.168,445.81 435.502,436.144 436.5,426.5C 437.107,426.624 437.44,426.957 437.5,427.5 Z"/></g>
<g><path style="opacity:1" fill="#917b3a" d="M 446.5,425.5 C 449.903,427.9 452.57,430.9 454.5,434.5C 451.097,432.1 448.43,429.1 446.5,425.5 Z"/></g>
<g><path style="opacity:1" fill="#110e06" d="M 58.5,434.5 C 60.1238,434.36 61.2904,435.027 62,436.5C 63.0569,439.549 63.2236,442.549 62.5,445.5C 61.914,445.291 61.414,444.957 61,444.5C 60.1621,441.148 59.3288,437.815 58.5,434.5 Z"/></g>
<g><path style="opacity:1" fill="#110e05" d="M 655.5,435.5 C 658.907,435.125 659.407,436.125 657,438.5C 655.961,437.756 655.461,436.756 655.5,435.5 Z"/></g>
<g><path style="opacity:1" fill="#120f07" d="M 652.5,446.5 C 653.695,446.866 654.361,447.699 654.5,449C 653.646,452.405 652.312,455.571 650.5,458.5C 650.167,457.667 649.833,456.833 649.5,456C 650.206,452.715 651.206,449.548 652.5,446.5 Z"/></g>
<g><path style="opacity:1" fill="#b39847" d="M 260.5,411.5 C 260.833,411.5 261.167,411.5 261.5,411.5C 261.069,422.578 261.569,433.578 263,444.5C 264.887,446.886 267.387,448.053 270.5,448C 276.5,448.333 282.5,448.667 288.5,449C 280.421,449.901 272.421,449.568 264.5,448C 262.951,446.786 261.785,445.286 261,443.5C 260.5,432.839 260.333,422.172 260.5,411.5 Z"/></g>
<g><path style="opacity:1" fill="#1b170d" d="M 64.5,454.5 C 67.9571,454.667 68.2904,455.667 65.5,457.5C 64.6143,456.675 64.281,455.675 64.5,454.5 Z"/></g>
<g><path style="opacity:1" fill="#16130a" d="M 68.5,465.5 C 69.5,465.5 70.5,465.5 71.5,465.5C 72.6988,469.099 73.6988,472.765 74.5,476.5C 73.5,476.5 72.5,476.5 71.5,476.5C 70.3012,472.901 69.3012,469.235 68.5,465.5 Z"/></g>
<g><path style="opacity:1" fill="#211c10" d="M 645.5,466.5 C 646.5,466.5 647.5,466.5 648.5,466.5C 648.5,467.5 648.5,468.5 648.5,469.5C 647.5,469.5 646.5,469.5 645.5,469.5C 645.5,468.5 645.5,467.5 645.5,466.5 Z"/></g>
<g><path style="opacity:1" fill="#17140a" d="M 641.5,477.5 C 642.695,477.866 643.361,478.699 643.5,480C 642.136,483.227 640.636,486.394 639,489.5C 638.25,488.874 637.416,488.374 636.5,488C 638.073,484.445 639.739,480.945 641.5,477.5 Z"/></g>
<g><path style="opacity:1" fill="#110e05" d="M 77.5,484.5 C 79.6246,485.368 79.7913,486.368 78,487.5C 76.3167,486.824 76.1501,485.824 77.5,484.5 Z"/></g>
<g><path style="opacity:1" fill="#1c180e" d="M 82.5,495.5 C 85.7565,498.336 87.7565,502.003 88.5,506.5C 87.325,506.719 86.325,506.386 85.5,505.5C 84.1667,502.833 82.8333,500.167 81.5,497.5C 81.8627,496.817 82.1961,496.15 82.5,495.5 Z"/></g>
<g><path style="opacity:1" fill="#1c180d" d="M 632.5,496.5 C 636.06,497.311 636.226,498.311 633,499.5C 631.317,498.824 631.15,497.824 632.5,496.5 Z"/></g>
<g><path style="opacity:1" fill="#18140b" d="M 626.5,507.5 C 627.675,507.281 628.675,507.614 629.5,508.5C 627.898,512.095 625.898,515.429 623.5,518.5C 622.5,518.167 621.833,517.5 621.5,516.5C 623.445,513.607 625.111,510.607 626.5,507.5 Z"/></g>
<g><path style="opacity:1" fill="#100d05" d="M 91.5,514.5 C 94.5476,514.494 95.0476,515.494 93,517.5C 91.9614,516.756 91.4614,515.756 91.5,514.5 Z"/></g>
<g><path style="opacity:1" fill="#1c180d" d="M 97.5,524.5 C 98.552,524.351 99.552,524.517 100.5,525C 102,527.167 103.5,529.333 105,531.5C 105.699,533.074 105.365,534.407 104,535.5C 101.306,532.108 99.1396,528.441 97.5,524.5 Z"/></g>
<g><path style="opacity:1" fill="#18140a" d="M 615.5,525.5 C 618.548,525.494 619.048,526.494 617,528.5C 615.961,527.756 615.461,526.756 615.5,525.5 Z"/></g>
<g><path style="opacity:1" fill="#18150b" d="M 609.5,535.5 C 611.225,535.843 611.725,536.843 611,538.5C 609.221,541.785 606.721,544.118 603.5,545.5C 604.967,541.907 606.967,538.574 609.5,535.5 Z"/></g>
<g><path style="opacity:1" fill="#110e06" d="M 110.5,541.5 C 112.465,541.948 112.798,542.948 111.5,544.5C 109.481,543.867 109.147,542.867 110.5,541.5 Z"/></g>
<g><path style="opacity:1" fill="#201b10" d="M 118.5,550.5 C 120.767,553.271 123.267,555.938 126,558.5C 126.27,559.932 125.604,560.932 124,561.5C 122.237,558.98 120.237,556.647 118,554.5C 117.421,553.072 117.588,551.738 118.5,550.5 Z"/></g>
<g><path style="opacity:1" fill="#2d2715" d="M 595.5,552.5 C 596.978,552.238 598.311,552.571 599.5,553.5C 597.537,556.194 596.203,555.861 595.5,552.5 Z"/></g>
<g><path style="opacity:1" fill="#1f1a0f" d="M 589.5,560.5 C 590.478,560.811 591.145,561.478 591.5,562.5C 589.477,565.869 586.977,568.869 584,571.5C 583.308,570.975 582.808,570.308 582.5,569.5C 584.475,566.195 586.809,563.195 589.5,560.5 Z"/></g>
<g><path style="opacity:1" fill="#362e19" d="M 131.5,566.5 C 135.123,567.411 135.29,568.745 132,570.5C 130.232,569.318 130.065,567.985 131.5,566.5 Z"/></g>
<g><path style="opacity:1" fill="#110e06" d="M 139.5,575.5 C 142.731,577.22 145.564,579.553 148,582.5C 148.563,583.725 148.23,584.725 147,585.5C 144.167,582.667 141.333,579.833 138.5,577C 139.056,576.617 139.389,576.117 139.5,575.5 Z"/></g>
<g><path style="opacity:1" fill="#131007" d="M 574.5,576.5 C 577.674,576.952 578.007,577.952 575.5,579.5C 573.481,578.867 573.147,577.867 574.5,576.5 Z"/></g>
<g><path style="opacity:1" fill="#5d584e" d="M 718.5,380.5 C 718.5,386.167 718.5,391.833 718.5,397.5C 717.419,400.627 716.753,403.96 716.5,407.5C 699.189,521.038 642.189,608.205 545.5,669C 500.776,695.852 452.443,712.019 400.5,717.5C 399.508,717.672 398.842,717.338 398.5,716.5C 447.903,711.199 494.237,696.365 537.5,672C 646.651,605.602 706.985,508.435 718.5,380.5 Z"/></g>
<g><path style="opacity:1" fill="#1c180d" d="M 565.5,584.5 C 567.686,584.511 568.519,585.511 568,587.5C 565.037,589.461 562.371,591.794 560,594.5C 558.77,593.725 558.437,592.725 559,591.5C 561.372,589.297 563.539,586.963 565.5,584.5 Z"/></g>
<g><path style="opacity:1" fill="#131006" d="M 155.5,589.5 C 157.852,590.543 158.019,591.876 156,593.5C 154.232,592.318 154.065,590.985 155.5,589.5 Z"/></g>
<g><path style="opacity:1" fill="#19150c" d="M 164.5,597.5 C 167.436,599.255 170.269,601.255 173,603.5C 173.749,604.635 173.583,605.635 172.5,606.5C 169.214,604.549 166.214,602.215 163.5,599.5C 163.863,598.817 164.196,598.15 164.5,597.5 Z"/></g>
<g><path style="opacity:1" fill="#151209" d="M 549.5,598.5 C 552.674,598.952 553.007,599.952 550.5,601.5C 549.614,600.675 549.281,599.675 549.5,598.5 Z"/></g>
<g><path style="opacity:1" fill="#575246" d="M 311.5,2.5 C 313.167,2.5 314.833,2.5 316.5,2.5C 296.339,5.2544 276.339,9.42106 256.5,15C 148.942,49.8943 72.4424,119.061 27,222.5C -16.4278,335.88 -7.42784,444.88 54,549.5C 119.44,648.995 211.607,705.329 330.5,718.5C 329.5,718.5 328.5,718.5 327.5,718.5C 218.976,707.174 132.143,658.174 67,571.5C 28.5234,517.537 6.02343,457.537 -0.5,391.5C -0.5,370.167 -0.5,348.833 -0.5,327.5C 13.1886,210.898 68.522,120.065 165.5,55C 210.212,26.7053 258.879,9.20534 311.5,2.5 Z"/></g>
<g><path style="opacity:1" fill="#161309" d="M 540.5,605.5 C 542.225,605.843 542.725,606.843 542,608.5C 539.333,610.5 536.667,612.5 534,614.5C 532.77,613.725 532.437,612.725 533,611.5C 535.688,609.636 538.188,607.636 540.5,605.5 Z"/></g>
<g><path style="opacity:1" fill="#151108" d="M 180.5,610.5 C 183.548,610.494 184.048,611.494 182,613.5C 180.961,612.756 180.461,611.756 180.5,610.5 Z"/></g>
<g><path style="opacity:1" fill="#1a160c" d="M 190.5,616.5 C 194.262,618.413 197.929,620.579 201.5,623C 200.874,623.75 200.374,624.584 200,625.5C 197.252,623.542 194.418,621.709 191.5,620C 190.663,618.989 190.33,617.822 190.5,616.5 Z"/></g>
<g><path style="opacity:1" fill="#151108" d="M 523.5,617.5 C 525.625,618.368 525.791,619.368 524,620.5C 522.317,619.824 522.15,618.824 523.5,617.5 Z"/></g>
<g><path style="opacity:1" fill="#1b170d" d="M 513.5,623.5 C 515.466,624.255 515.8,625.421 514.5,627C 511.222,628.809 507.889,630.309 504.5,631.5C 504.281,630.325 504.614,629.325 505.5,628.5C 508.231,626.808 510.898,625.142 513.5,623.5 Z"/></g>
<g><path style="opacity:1" fill="#1a160c" d="M 208.5,627.5 C 212.31,628.754 212.31,629.754 208.5,630.5C 208.5,629.5 208.5,628.5 208.5,627.5 Z"/></g>
<g><path style="opacity:1" fill="#1a160c" d="M 219.5,633.5 C 222.771,634.796 226.105,636.129 229.5,637.5C 230.687,638.824 230.354,639.824 228.5,640.5C 225.5,639 222.5,637.5 219.5,636C 218.402,635.23 218.402,634.397 219.5,633.5 Z"/></g>
<g><path style="opacity:1" fill="#231e11" d="M 494.5,633.5 C 497.714,634.794 497.881,636.128 495,637.5C 493.666,636.122 493.499,634.789 494.5,633.5 Z"/></g>
<g><path style="opacity:1" fill="#141108" d="M 484.5,638.5 C 485.267,639.172 485.934,640.005 486.5,641C 483.285,642.774 479.952,644.274 476.5,645.5C 475.692,645.192 475.025,644.692 474.5,644C 477.767,641.871 481.101,640.038 484.5,638.5 Z"/></g>
<g><path style="opacity:1" fill="#201b10" d="M 238.5,642.5 C 242.099,642.262 242.433,643.262 239.5,645.5C 237.481,644.867 237.147,643.867 238.5,642.5 Z"/></g>
<g><path style="opacity:1" fill="#16130a" d="M 249.5,646.5 C 253.11,647.703 256.777,648.703 260.5,649.5C 260.5,650.5 260.5,651.5 260.5,652.5C 257.013,652.095 253.68,651.095 250.5,649.5C 249.614,648.675 249.281,647.675 249.5,646.5 Z"/></g>
<g><path style="opacity:1" fill="#2b2515" d="M 464.5,646.5 C 467.041,647.623 467.041,648.956 464.5,650.5C 463.374,649.192 463.374,647.858 464.5,646.5 Z"/></g>
<g><path style="opacity:1" fill="#1f1b0f" d="M 452.5,650.5 C 453.5,650.5 454.5,650.5 455.5,650.5C 455.719,651.675 455.386,652.675 454.5,653.5C 450.952,654.97 447.285,655.97 443.5,656.5C 443.5,655.5 443.5,654.5 443.5,653.5C 446.785,653.072 449.785,652.072 452.5,650.5 Z"/></g>
<g><path style="opacity:1" fill="#0e0c04" d="M 269.5,653.5 C 272.907,653.125 273.407,654.125 271,656.5C 269.961,655.756 269.461,654.756 269.5,653.5 Z"/></g>
<g><path style="opacity:1" fill="#1a160c" d="M 280.5,656.5 C 284.443,657.486 288.443,658.152 292.5,658.5C 292.5,659.5 292.5,660.5 292.5,661.5C 288.443,661.152 284.443,660.486 280.5,659.5C 280.5,658.5 280.5,657.5 280.5,656.5 Z"/></g>
<g><path style="opacity:1" fill="#241f13" d="M 433.5,656.5 C 435.048,656.821 435.715,657.821 435.5,659.5C 432.752,659.598 432.086,658.598 433.5,656.5 Z"/></g>
<g><path style="opacity:1" fill="#17140b" d="M 420.5,659.5 C 421.5,659.5 422.5,659.5 423.5,659.5C 423.5,660.5 423.5,661.5 423.5,662.5C 419.384,662.541 415.384,663.207 411.5,664.5C 411.281,663.325 411.614,662.325 412.5,661.5C 415.311,660.92 417.977,660.254 420.5,659.5 Z"/></g>
<g><path style="opacity:1" fill="#534723" d="M 301.5,660.5 C 302.5,660.5 303.5,660.5 304.5,660.5C 304.5,661.833 304.5,663.167 304.5,664.5C 303.5,664.5 302.5,664.5 301.5,664.5C 301.5,663.167 301.5,661.833 301.5,660.5 Z"/></g>
<g><path style="opacity:1" fill="#1d190f" d="M 313.5,663.5 C 317.167,663.5 320.833,663.5 324.5,663.5C 324.5,664.5 324.5,665.5 324.5,666.5C 320.833,666.5 317.167,666.5 313.5,666.5C 313.5,665.5 313.5,664.5 313.5,663.5 Z"/></g>
<g><path style="opacity:1" fill="#130f07" d="M 399.5,663.5 C 400.675,663.281 401.675,663.614 402.5,664.5C 400.948,665.798 399.948,665.465 399.5,663.5 Z"/></g>
<g><path style="opacity:1" fill="#030201" d="M 386.5,664.5 C 387.833,664.5 389.167,664.5 390.5,664.5C 390.5,665.5 390.5,666.5 390.5,667.5C 388.167,667.5 385.833,667.5 383.5,667.5C 382.022,667.762 380.689,667.429 379.5,666.5C 381.969,665.832 384.302,665.165 386.5,664.5 Z"/></g>
<g><path style="opacity:1" fill="#7c6931" d="M 357.5,668.5 C 353.702,669.483 349.702,669.817 345.5,669.5C 345.5,668.167 345.5,666.833 345.5,665.5C 349.833,665.5 354.167,665.5 358.5,665.5C 358.737,666.791 358.404,667.791 357.5,668.5 Z"/></g>
<g><path style="opacity:1" fill="#000000" d="M 357.5,668.5 C 353.774,668.823 350.107,668.489 346.5,667.5C 348.333,667.167 350.167,666.833 352,666.5C 354.295,666.547 356.129,667.213 357.5,668.5 Z"/></g>
<g><path style="opacity:1" fill="#241f12" d="M 366.5,665.5 C 367.5,665.5 368.5,665.5 369.5,665.5C 369.5,666.5 369.5,667.5 369.5,668.5C 368.5,668.5 367.5,668.5 366.5,668.5C 366.5,667.5 366.5,666.5 366.5,665.5 Z"/></g>
<g><path style="opacity:1" fill="#7f6c33" d="M 336.5,665.5 C 337.404,666.209 337.737,667.209 337.5,668.5C 336.167,668.5 334.833,668.5 333.5,668.5C 333.5,667.167 333.5,665.833 333.5,664.5C 334.791,664.263 335.791,664.596 336.5,665.5 Z"/></g>
<g><path style="opacity:1" fill="#000000" d="M 336.5,665.5 C 336.361,667.337 335.694,667.67 334.5,666.5C 334.957,665.702 335.624,665.369 336.5,665.5 Z"/></g>
<g><path style="opacity:1" fill="#6a5a2a" d="M 386.5,664.5 C 384.302,665.165 381.969,665.832 379.5,666.5C 380.689,667.429 382.022,667.762 383.5,667.5C 382.081,668.451 380.415,668.784 378.5,668.5C 378.5,667.167 378.5,665.833 378.5,664.5C 381.167,664.5 383.833,664.5 386.5,664.5 Z"/></g>
<g><path style="opacity:0.859" fill="#6c6c6c" d="M 327.5,718.5 C 328.5,718.5 329.5,718.5 330.5,718.5C 331.833,718.5 333.167,718.5 334.5,718.5C 338.5,719.167 342.5,719.833 346.5,720.5C 230.833,720.5 115.167,720.5 -0.5,720.5C -0.5,720.167 -0.5,719.833 -0.5,719.5C 109.001,719.833 218.335,719.499 327.5,718.5 Z"/></g>
<g><path style="opacity:0.925" fill="#423c31" d="M 334.5,718.5 C 349.833,718.5 365.167,718.5 380.5,718.5C 378.5,719.167 376.5,719.833 374.5,720.5C 365.167,720.5 355.833,720.5 346.5,720.5C 342.5,719.833 338.5,719.167 334.5,718.5 Z"/></g>
<g><path style="opacity:0.859" fill="#6e6e6d" d="M 718.5,397.5 C 718.5,505.167 718.5,612.833 718.5,720.5C 603.833,720.5 489.167,720.5 374.5,720.5C 376.5,719.833 378.5,719.167 380.5,718.5C 386.489,717.774 392.489,717.107 398.5,716.5C 398.842,717.338 399.508,717.672 400.5,717.5C 397.695,718.319 394.695,718.819 391.5,719C 500.166,719.5 608.833,719.667 717.5,719.5C 717.833,615.332 717.499,511.332 716.5,407.5C 716.753,403.96 717.419,400.627 718.5,397.5 Z"/></g>
</svg>
